<?xml version="1.0" encoding="utf-8"?>
<!-- Generator: Adobe Illustrator 23.0.3, SVG Export Plug-In . SVG Version: 6.00 Build 0)  -->
<svg version="1.1" id="Layer_1" xmlns="http://www.w3.org/2000/svg" xmlns:xlink="http://www.w3.org/1999/xlink" x="0px" y="0px"
	 viewBox="0 0 320 320" style="enable-background:new 0 0 320 320;" xml:space="preserve">
<style type="text/css">
	.st0{fill:#FFFFFF;}
	.st1{fill:none;stroke:#FFFFFF;stroke-miterlimit:10;}
</style>
<g>
	<g>
		<path class="st0" d="M283.91,180c-0.28,51.4-32.73,98.67-81.23,116.37c-48.71,17.78-104.48,2.76-137.78-36.92
			c-33.6-40.03-38.01-98.81-11-143.5c26.8-44.33,79.94-67.75,130.75-57.42c49.97,10.15,89.4,51.2,97.68,101.49
			C283.41,166.63,283.87,173.31,283.91,180c0.02,3.22,5.02,3.22,5,0c-0.29-53.51-33.99-102.31-84.28-120.96
			C153.85,40.19,94.9,56.21,60.53,98.01c-34.31,41.73-38.95,102.23-10.95,148.55c27.88,46.13,82.88,70.3,135.73,59.85
			c52.24-10.32,93.98-53.81,102.05-106.46c1.01-6.61,1.52-13.27,1.55-19.96C288.93,176.78,283.93,176.78,283.91,180z"/>
	</g>
</g>
<g>
	<g>
		<path class="st0" d="M7.68,168.41C7.96,105.11,48.1,46.94,107.82,25.25c59.84-21.73,128.29-3.17,169.14,45.56
			c22.87,27.28,35.19,62.07,35.35,97.59c0.01,3.22,5.01,3.22,5,0C317.03,103,275.64,43.29,214.13,20.66
			C152.23-2.12,80.54,17.4,38.66,68.29C15.46,96.48,2.84,131.92,2.68,168.41C2.67,171.62,7.67,171.63,7.68,168.41L7.68,168.41z"/>
	</g>
</g>
<line class="st1" x1="22.09" y1="177.55" x2="21.36" y2="177.55"/>
<g>
	<g>
		<path class="st0" d="M33.59,182.5c28.55,0,57.1,0,85.65,0c45.3,0,90.61,0,135.91,0c10.42,0,20.84,0,31.26,0c3.22,0,3.22-5,0-5
			c-28.55,0-57.1,0-85.65,0c-45.3,0-90.61,0-135.91,0c-10.42,0-20.84,0-31.26,0C30.37,177.5,30.37,182.5,33.59,182.5L33.59,182.5z"
			/>
	</g>
</g>
</svg>
