<?xml version="1.0" encoding="utf-8"?>
<!-- Generator: Adobe Illustrator 23.0.3, SVG Export Plug-In . SVG Version: 6.00 Build 0)  -->
<svg version="1.1" id="Layer_1" xmlns="http://www.w3.org/2000/svg" xmlns:xlink="http://www.w3.org/1999/xlink" x="0px" y="0px"
	 viewBox="0 0 320 320" style="enable-background:new 0 0 320 320;" xml:space="preserve">
<style type="text/css">
	.st0{fill:#FFFFFF;}
</style>
<g>
	<g>
		<path class="st0" d="M283.91,180c-0.28,51.4-32.73,98.67-81.23,116.37c-48.71,17.78-104.48,2.76-137.78-36.92
			c-33.6-40.03-38.01-98.81-11-143.5c26.8-44.33,79.94-67.75,130.75-57.42c49.97,10.15,89.4,51.2,97.68,101.49
			C283.41,166.63,283.87,173.31,283.91,180c0.02,3.22,5.02,3.22,5,0c-0.29-53.51-33.99-102.31-84.28-120.96
			C153.85,40.19,94.9,56.21,60.53,98.01c-34.31,41.73-38.95,102.23-10.95,148.55c27.88,46.13,82.88,70.3,135.73,59.85
			c52.24-10.32,93.98-53.81,102.05-106.46c1.01-6.61,1.52-13.27,1.55-19.96C288.93,176.78,283.93,176.78,283.91,180z"/>
	</g>
</g>
<g>
	<g>
		<path class="st0" d="M7.68,168.41C7.96,105.11,48.1,46.94,107.82,25.25c59.84-21.73,128.29-3.17,169.14,45.56
			c22.87,27.28,35.19,62.07,35.35,97.59c0.01,3.22,5.01,3.22,5,0C317.03,103,275.64,43.29,214.13,20.66
			C152.23-2.12,80.54,17.4,38.66,68.29C15.46,96.48,2.84,131.92,2.68,168.41C2.67,171.62,7.67,171.63,7.68,168.41L7.68,168.41z"/>
	</g>
</g>
<g>
	<circle class="st0" cx="160" cy="180" r="72.13"/>
	<g>
		<path class="st0" d="M229.63,180c-0.28,29.11-18.59,55.83-46.24,65.61c-27.38,9.68-58.45,1.1-77.02-21.19
			c-18.71-22.45-21.1-55.32-6.05-80.32c15-24.91,44.85-38.16,73.38-32.39C206.08,118.26,229.32,147.15,229.63,180
			c0.03,3.22,5.03,3.22,5,0c-0.3-30.98-19.54-59.07-48.66-69.98c-29.37-11.01-63.69-1.72-83.56,22.52
			c-19.79,24.15-22.57,59.05-6.41,85.88c16.08,26.71,47.79,40.71,78.37,34.82c34.84-6.7,59.93-38.07,60.26-73.24
			C234.66,176.78,229.66,176.78,229.63,180z"/>
	</g>
</g>
</svg>
