<?xml version="1.0" encoding="utf-8"?>
<!-- Generator: Adobe Illustrator 23.0.3, SVG Export Plug-In . SVG Version: 6.00 Build 0)  -->
<svg version="1.1" id="Layer_1" xmlns="http://www.w3.org/2000/svg" xmlns:xlink="http://www.w3.org/1999/xlink" x="0px" y="0px"
	 viewBox="0 0 320 320" style="enable-background:new 0 0 320 320;" xml:space="preserve">
<style type="text/css">
	.st0{fill:#FFFFFF;stroke:#FFFFFF;stroke-miterlimit:10;}
</style>
<g>
	<path class="st0" d="M160,45.01c-75.94,0-137.5,61.56-137.5,137.5S84.06,320,160,320c75.94,0,137.5-61.56,137.5-137.5
		S235.94,45.01,160,45.01z M160,303.35c-66.74,0-120.85-54.11-120.85-120.85S93.26,61.66,160,61.66
		c66.74,0,120.85,54.11,120.85,120.85S226.74,303.35,160,303.35z"/>
	<path class="st0" d="M30.95,53.45l15.62,15.62C75.6,40.05,115.7,22.1,160,22.1c44.3,0,84.4,17.95,113.42,46.98v0l15.63-15.62
		C256.02,20.43,210.4,0,160,0S63.98,20.43,30.95,53.45z"/>
	<circle class="st0" cx="160" cy="182.5" r="83.85"/>
</g>
</svg>
