<?xml version="1.0" encoding="utf-8"?>
<!-- Generator: Adobe Illustrator 19.2.1, SVG Export Plug-In . SVG Version: 6.00 Build 0)  -->
<svg version="1.1" id="Warstwa_1" xmlns="http://www.w3.org/2000/svg" xmlns:xlink="http://www.w3.org/1999/xlink" x="0px" y="0px"
	 viewBox="0 0 445 327" style="enable-background:new 0 0 445 327;" xml:space="preserve">
<style type="text/css">
	.st0{fill:#FFFFFF;}
</style>
<g>
	<path class="st0" d="M95.1,192.1c0.5,0.4,0.8,1,0.8,1.7c0.1,1.2-0.2,2.3-0.9,3.2c-0.7,1-1.7,1.5-3.2,1.7c-3.6,0.3-6.9,0.2-9.9-0.2
		c-2.8,7.1-6.2,13-10.5,17.9c-4.2,4.8-8.5,7.4-13,7.7c-4,0.3-7.2-1.7-9.5-5.8c-2.3-4.2-3.9-9.8-4.6-17c-2.2,8.2-4.9,14.4-8.1,18.5
		c-3.2,4.1-6.8,6.3-10.7,6.6c-4.4,0.3-7.9-2.2-10.6-7.6c-2.6-5.3-4.3-12.7-4.9-21.9c-0.5-6.8-0.4-14.2,0.3-22.4
		c0.2-2.3,0.6-4,1.4-4.9c0.8-1,2.1-1.5,3.9-1.6c1.4-0.1,2.5,0.1,3.3,0.7c0.8,0.5,1.3,1.6,1.4,3.2c0,0.3,0,0.9,0,1.9
		c-0.7,9.5-0.9,17.6-0.4,24.2c0.4,6.2,1.3,10.9,2.6,14.2c1.3,3.3,2.8,4.9,4.6,4.7c1.6-0.1,3.4-1.9,5.5-5.5c2-3.5,4-8.7,5.8-15.5
		c1.8-6.8,3.2-14.8,4.1-24.2c0.2-2.1,0.8-3.6,1.7-4.5c0.9-0.9,2.3-1.4,4-1.5c1.4-0.1,2.5,0.1,3.2,0.7c0.7,0.6,1.1,1.5,1.2,2.7
		c0.1,0.7,0,1.3,0,1.7c-0.8,7.6-0.9,15.1-0.4,22.6c0.3,5.1,0.8,9.2,1.3,12.2c0.6,3,1.4,5.3,2.5,6.8c1.1,1.5,2.6,2.2,4.5,2.1
		c2.2-0.2,4.6-2,7-5.5c2.5-3.5,4.7-7.8,6.6-13c-2.9-1.6-5.2-3.7-6.8-6.4c-1.6-2.7-2.5-5.8-2.8-9.5c-0.2-3.6,0.1-6.7,1.1-9.3
		c1-2.6,2.4-4.6,4.2-5.9c1.9-1.4,4-2.1,6.4-2.3c2.9-0.2,5.3,0.7,7.2,2.7c1.9,2,2.9,4.8,3.2,8.5c0.4,5.2-0.4,11-2.2,17.5
		c2.4,0.3,5.1,0.3,8.3,0.1C93.8,191.5,94.5,191.6,95.1,192.1z M76.5,189c1.4-5.3,2.1-9.6,1.8-12.9c-0.1-1.9-0.5-3.3-1-4.2
		s-1.3-1.3-2.2-1.2c-1.2,0.1-2.2,0.9-2.9,2.4c-0.7,1.5-0.9,3.6-0.8,6.3C71.7,183.8,73.4,187.1,76.5,189z"/>
	<path class="st0" d="M126.8,204.7c0.4,0.6,0.6,1.3,0.7,2.1c0.1,1.1,0,1.9-0.3,2.5c-0.3,0.6-0.8,1.2-1.4,1.7l-12.6,9.8
		c-1.1,9.6-2.9,17.3-5.3,22.9c-2.5,5.6-5.9,8.6-10.2,8.9c-2.3,0.2-4.3-0.4-5.9-1.8c-1.6-1.3-2.4-3.2-2.6-5.5c-0.1-2.2,0.2-4.4,1-6.7
		c0.8-2.3,2.5-5,5-8.1c2.5-3.1,6.1-6.7,10.7-10.8l0.1-1.6c0.2-1.7,0.4-4.2,0.6-7.4c-0.7,3.4-1.8,6-3.4,7.8c-1.5,1.8-3.2,2.8-5.1,2.9
		c-2.1,0.1-3.8-0.7-5.3-2.5c-1.4-1.8-2.3-4.2-2.4-7c-0.2-3.4-0.2-6.6,0-9.5c0.3-2.9,0.8-6,1.7-9.3c0.4-1.4,0.9-2.4,1.7-3.1
		c0.8-0.7,2.1-1,3.9-1.2c1-0.1,1.7,0,2.1,0.3c0.4,0.3,0.6,0.8,0.7,1.4c0,0.4-0.1,1.6-0.5,3.8c-0.3,1.7-0.6,3.3-0.8,4.7
		c-0.2,1.9-0.4,3.7-0.6,5.5c-0.2,1.7-0.2,3.2-0.1,4.3c0.1,1.7,0.7,2.6,1.6,2.5c0.7,0,1.5-0.8,2.4-2.2c0.9-1.5,1.9-3.6,2.9-6.5
		c1-2.9,1.9-6.4,2.7-10.6c0.3-1.4,0.8-2.4,1.5-3.1c0.7-0.6,1.8-1,3.4-1.1c1.1-0.1,1.8,0,2.2,0.3c0.4,0.2,0.7,0.7,0.7,1.3
		c0.1,1.1-0.3,5.1-1,12l-1,11.2c3.4-2.9,6.6-5.6,9.9-8c0.6-0.4,1.1-0.6,1.5-0.7C125.9,203.9,126.4,204.2,126.8,204.7z M101.4,241.7
		c1.2-2.8,2.4-7.3,3.4-13.6c-3.3,3.2-5.7,6.1-7.1,8.7c-1.4,2.6-2.1,4.8-1.9,6.6c0.1,0.8,0.2,1.4,0.6,1.9c0.3,0.5,0.8,0.7,1.5,0.7
		C99,245.9,100.2,244.4,101.4,241.7z"/>
	<path class="st0" d="M162.1,202.2c0.4,0.5,0.6,1.3,0.7,2.2c0.1,1.8-0.2,3.3-1,4.4c-1.8,2.6-3.8,4.7-6,6.4c-2.2,1.7-4.7,2.7-7.6,2.9
		c-2.4,0.2-4.5-0.6-6.1-2.2c-2.5,1.9-5.2,2.9-8,3.2c0,8.9-0.9,16.4-2.6,22.5c-1.7,6.1-4.6,9.3-8.7,9.6c-2.5,0.2-4.4-0.6-5.7-2.3
		c-1.3-1.7-2.1-4.2-2.3-7.3c-0.3-4.5,0.4-9.8,2-16c1.7-6.1,4.4-13,8.2-20.5c-0.5-6.7-0.8-11.4-1.1-14c-0.1-1.3,0.3-2.4,1.4-3.3
		c1.1-0.9,2.4-1.3,4.1-1.5c1-0.1,1.7,0.1,2.1,0.4c0.5,0.4,0.8,1.1,0.9,2.3c0.1,1.2,0.2,2,0.2,2.5c1.3-1.9,2.7-3.4,4.1-4.3
		c1.4-0.9,2.9-1.4,4.5-1.5c2.6-0.2,4.7,0.7,6.5,2.7c1.8,2,2.8,4.6,3,8c0.2,2.4-0.1,4.8-0.7,7.2c-0.6,2.4-1.6,4.5-2.8,6.5
		c1,0.2,1.8,0.3,2.4,0.3c1.5-0.1,2.9-0.8,4.2-2c1.3-1.2,2.9-3.2,4.9-5.9c0.5-0.7,1.1-1,1.8-1.1C161.2,201.4,161.7,201.6,162.1,202.2
		z M125.4,236c0.5-5.5,0.5-12.2,0.2-20.3c-1.7,4.7-2.9,9.2-3.8,13.5c-0.9,4.3-1.2,7.8-1,10.7c0.1,1.5,0.3,2.6,0.7,3.3
		c0.4,0.8,0.8,1.1,1.3,1.1C124.1,244.2,124.9,241.5,125.4,236z M138.3,209.3c1.3-1.5,2.3-3.4,3-5.6c0.7-2.2,0.9-4.5,0.8-6.8
		c-0.1-1.4-0.4-2.4-1-3.1c-0.6-0.7-1.4-1-2.3-0.9c-1.7,0.1-3.5,2-5.6,5.6c0.1,2,0.3,5,0.5,8.9c0.1,2.1,0.2,3.7,0.3,4.9
		C135.5,211.9,137,210.9,138.3,209.3z"/>
	<path class="st0" d="M162.6,215c-2-1.2-3.6-2.9-4.7-5.1c-1.1-2.1-1.8-4.5-1.9-7c-0.2-3.5,0.2-6.7,1.3-9.5c1.1-2.8,2.8-5.1,4.9-6.8
		c2.1-1.7,4.6-2.6,7.4-2.8c2.7-0.2,5.1,0.3,7.1,1.6c2,1.2,3.6,2.9,4.7,5.1c1.1,2.1,1.8,4.5,1.9,7c0.2,3.5-0.2,6.7-1.4,9.5
		c-1.1,2.8-2.8,5.1-5,6.8c-2.2,1.7-4.6,2.6-7.4,2.8C166.9,216.8,164.6,216.3,162.6,215z M173.7,206.3c1-1.8,1.3-4.3,1.1-7.6
		c-0.2-2.5-0.8-4.4-1.8-5.6c-1-1.2-2.2-1.8-3.4-1.7c-1.7,0.1-3,1-3.9,2.8c-1,1.8-1.3,4.3-1.1,7.6c0.2,2.6,0.8,4.5,1.8,5.7
		c1,1.2,2.2,1.7,3.6,1.6C171.5,209,172.7,208.1,173.7,206.3z"/>
	<path class="st0" d="M222,198.1c0.4,0.5,0.6,1.3,0.7,2.2c0.1,1.7-0.2,3.2-1,4.4c-2,3-4.5,5.3-7.6,7.2c-3.1,1.8-6.6,2.9-10.6,3.1
		c-3.1,0.2-5.9-0.1-8.2-0.9c-2.4-0.8-4.2-2-5.5-3.5c-1.3-1.5-2.1-3.3-2.2-5.4c-0.2-3,0.8-5.8,3.1-8.3c2.3-2.5,5.6-5,10-7.5l-11.3,1
		c-1,0.1-1.8-0.2-2.4-0.9c-0.6-0.7-0.9-1.6-1-2.7c-0.1-1.1,0.1-2.1,0.6-3c0.5-0.9,1.2-1.4,2.1-1.4c2.1-0.1,5-0.2,8.5-0.1
		c0.7,0,2.1,0,4.1,0c2,0,3.6,0,4.9-0.1c0.5,0,1.3-0.3,2.6-0.7c0.2-0.1,0.7-0.2,1.3-0.4c0.7-0.2,1.2-0.4,1.7-0.4
		c0.7-0.1,1.4,0.2,1.9,0.8c0.5,0.6,0.8,1.6,0.9,2.9c0.1,1.5-0.2,2.6-0.8,3.5c-0.6,0.9-1.7,1.7-3.1,2.4c-4.1,2.1-7.4,4.2-10,6.5
		c-2.6,2.2-3.9,4.4-3.7,6.4c0.1,1.3,0.8,2.3,2,3.1c1.3,0.7,3,1,5.4,0.9c2.6-0.2,5.1-1,7.7-2.5c2.6-1.5,4.8-3.6,6.7-6.3
		c0.5-0.7,1.1-1,1.8-1.1C221.1,197.3,221.6,197.6,222,198.1z M196.9,176.2c-1-0.8-1.6-2.1-1.7-3.7c-0.1-1.6,0.4-3,1.6-4.2
		c1.2-1.2,2.7-1.8,4.6-1.9c1.7-0.1,3.1,0.2,4.2,1c1.1,0.8,1.7,1.9,1.8,3.4c0.1,1.8-0.4,3.3-1.5,4.5c-1.1,1.2-2.7,1.8-4.6,1.9
		C199.4,177.4,197.9,177,196.9,176.2z"/>
	<path class="st0" d="M253.6,196.1c0.4,0.6,0.6,1.3,0.7,2.1c0.1,1.1,0,1.9-0.3,2.5c-0.3,0.6-0.8,1.2-1.4,1.7l-12.6,9.8
		c-1.1,9.6-2.9,17.3-5.3,22.9c-2.5,5.6-5.9,8.6-10.2,8.9c-2.3,0.2-4.3-0.4-5.9-1.8c-1.6-1.3-2.4-3.2-2.6-5.5c-0.1-2.2,0.2-4.4,1-6.7
		c0.8-2.3,2.5-5,5-8.1c2.5-3.1,6.1-6.7,10.7-10.8l0.1-1.6c0.2-1.7,0.4-4.2,0.6-7.4c-0.7,3.4-1.8,6-3.4,7.8c-1.5,1.8-3.2,2.8-5.1,2.9
		c-2.1,0.1-3.8-0.7-5.3-2.5c-1.4-1.8-2.3-4.2-2.4-7c-0.2-3.4-0.2-6.6,0-9.5c0.3-2.9,0.8-6,1.7-9.3c0.4-1.4,0.9-2.4,1.7-3.1
		c0.8-0.7,2.1-1,3.9-1.2c1-0.1,1.7,0,2.1,0.3c0.4,0.3,0.6,0.8,0.7,1.4c0,0.4-0.1,1.6-0.5,3.8c-0.3,1.7-0.6,3.3-0.8,4.7
		c-0.2,1.9-0.4,3.7-0.6,5.5c-0.2,1.7-0.2,3.2-0.1,4.3c0.1,1.7,0.7,2.6,1.6,2.5c0.7,0,1.5-0.8,2.4-2.2c0.9-1.5,1.9-3.6,2.9-6.5
		c1-2.9,1.9-6.4,2.7-10.6c0.3-1.4,0.8-2.4,1.5-3.1c0.7-0.6,1.8-1,3.4-1.1c1.1-0.1,1.8,0,2.2,0.3c0.4,0.2,0.7,0.7,0.7,1.3
		c0.1,1.1-0.3,5.1-1,12l-1,11.2c3.4-2.9,6.6-5.6,9.9-8c0.6-0.4,1.1-0.6,1.5-0.7C252.7,195.3,253.2,195.6,253.6,196.1z M228.2,233.1
		c1.2-2.8,2.4-7.3,3.4-13.6c-3.3,3.2-5.7,6.1-7.1,8.7c-1.4,2.6-2.1,4.8-1.9,6.6c0.1,0.8,0.2,1.4,0.6,1.9c0.3,0.5,0.8,0.7,1.5,0.7
		C225.8,237.3,227,235.8,228.2,233.1z"/>
	<path class="st0" d="M253.3,207.1c-2.7-2.4-4.2-5.7-4.4-9.9c-0.3-3.7,0.3-7,1.5-9.9c1.3-2.9,3-5.2,5.3-6.9c2.2-1.7,4.7-2.6,7.2-2.8
		c2.5-0.2,4.5,0.4,6,1.8c1.5,1.4,2.3,3.3,2.5,5.6c0.1,1.9-0.2,3.6-0.9,5c-0.8,1.4-1.8,2.1-3.2,2.2c-0.9,0.1-1.6-0.1-2.1-0.5
		c-0.6-0.4-0.9-0.9-0.9-1.7c0-0.3,0-0.7,0.1-1.1c0.1-0.4,0.1-0.7,0.1-0.9c0.2-0.7,0.3-1.4,0.2-2c0-0.6-0.2-1-0.5-1.3
		c-0.3-0.3-0.8-0.4-1.3-0.4c-1.1,0.1-2,0.6-2.9,1.6c-0.9,1-1.5,2.3-1.9,4c-0.4,1.6-0.6,3.4-0.5,5.4c0.4,5.3,2.9,7.8,7.5,7.5
		c1.9-0.1,3.9-0.9,6-2.3c2.1-1.4,4.1-3.5,6.1-6.1c0.5-0.7,1.1-1,1.8-1.1c0.6,0,1.1,0.2,1.5,0.7c0.4,0.5,0.6,1.3,0.7,2.2
		c0.1,1.7-0.2,3.2-1,4.4c-2,2.8-4.4,5-7.3,6.7c-2.9,1.7-5.8,2.6-8.6,2.8C259.6,210.5,256,209.5,253.3,207.1z"/>
	<path class="st0" d="M311.1,192.1c0.4,0.5,0.6,1.3,0.7,2.2c0.1,1.7-0.2,3.2-1,4.4c-2,3-4.5,5.3-7.6,7.2c-3.1,1.8-6.6,2.9-10.6,3.1
		c-3.1,0.2-5.9-0.1-8.2-0.9c-2.4-0.8-4.2-2-5.5-3.5c-1.3-1.5-2.1-3.3-2.2-5.4c-0.2-3,0.8-5.8,3.1-8.3c2.3-2.5,5.6-5,10-7.5l-11.3,1
		c-1,0.1-1.8-0.2-2.4-0.9c-0.6-0.7-0.9-1.6-1-2.7c-0.1-1.1,0.1-2.1,0.6-3c0.5-0.9,1.2-1.4,2.1-1.4c2.1-0.1,5-0.2,8.5-0.1
		c0.7,0,2.1,0,4.1,0c2,0,3.6,0,4.9-0.1c0.5,0,1.3-0.3,2.6-0.7c0.2-0.1,0.7-0.2,1.3-0.4c0.7-0.2,1.2-0.4,1.7-0.4
		c0.7,0,1.4,0.2,1.9,0.8c0.5,0.6,0.8,1.6,0.9,2.9c0.1,1.5-0.2,2.6-0.8,3.5c-0.6,0.9-1.7,1.7-3.1,2.4c-4.1,2.1-7.4,4.2-10,6.5
		c-2.6,2.2-3.9,4.4-3.7,6.4c0.1,1.3,0.8,2.3,2,3.1c1.3,0.7,3,1,5.4,0.9c2.6-0.2,5.1-1,7.7-2.5c2.6-1.5,4.8-3.6,6.7-6.3
		c0.5-0.7,1.1-1,1.8-1.1C310.2,191.3,310.7,191.5,311.1,192.1z"/>
	<path class="st0" d="M307.7,204.1c-1.8-2-2.9-4.6-3.1-8c-0.2-3.7,0.4-7.2,1.8-10.6c1.5-3.4,3.6-6.2,6.3-8.4
		c2.7-2.2,5.6-3.4,8.8-3.6c1-0.1,1.7,0.1,2.1,0.4c0.4,0.4,0.7,1.1,1,2c1-0.2,2-0.4,3-0.5c2.3-0.2,3.4,0.6,3.5,2.2
		c0.1,1-0.1,3.3-0.6,7c-0.7,5.4-1,9.1-0.8,11.1c0,0.7,0.3,1.2,0.6,1.6c0.4,0.4,0.8,0.6,1.4,0.5c0.9-0.1,1.9-0.7,3.1-1.9
		c1.2-1.2,2.7-3.2,4.7-5.8c0.5-0.7,1.1-1,1.8-1.1c0.6,0,1.1,0.2,1.5,0.7c0.4,0.5,0.6,1.3,0.7,2.2c0.1,1.8-0.2,3.3-1,4.4
		c-1.7,2.5-3.6,4.6-5.6,6.3c-2,1.8-4,2.7-6,2.8c-1.5,0.1-2.9-0.3-4.3-1.3c-1.3-0.9-2.4-2.3-3.2-4c-2.1,4-5,6.2-8.6,6.4
		C311.9,207,309.6,206.1,307.7,204.1z M319.6,197.6c0.8-1.3,1.4-2.9,1.7-4.9l1.7-12.9c-1.9,0.2-3.7,1-5.2,2.5
		c-1.5,1.5-2.7,3.5-3.5,5.8c-0.8,2.4-1.1,4.8-1,7.4c0.1,1.4,0.5,2.5,1.1,3.1c0.6,0.7,1.4,0.9,2.4,0.9
		C317.8,199.6,318.7,198.9,319.6,197.6z"/>
	<path class="st0" d="M365.3,188.4c0.4,0.5,0.6,1.3,0.7,2.2c0.1,1.8-0.2,3.3-1,4.4c-1.8,2.6-3.8,4.7-6,6.4c-2.2,1.7-4.8,2.7-7.7,2.9
		c-4,0.3-7.2-1.4-9.4-4.9c-2.2-3.5-3.5-8.2-3.9-14.1c-0.4-5.6-0.1-12.1,0.9-19.3c1-7.3,2.7-13.6,5.2-18.9c2.5-5.3,5.7-8.1,9.6-8.4
		c2.2-0.1,4,0.8,5.4,2.7c1.4,2,2.2,4.8,2.5,8.7c0.4,5.5-0.7,11.9-3.3,19.3c-2.5,7.4-6.2,14.9-10.9,22.3c0.4,1.9,1.1,3.2,1.9,3.9
		c0.8,0.8,1.8,1.1,3,1c1.9-0.1,3.5-0.8,4.9-2c1.4-1.2,3-3.2,5.1-5.9c0.5-0.7,1.1-1,1.8-1.1C364.4,187.6,364.9,187.9,365.3,188.4z
		 M349.2,151.6c-1.1,3.9-1.9,8.7-2.6,14.4c-0.6,5.7-0.8,11.2-0.6,16.4c2.9-5.6,5.1-11.2,6.7-16.7c1.6-5.5,2.2-10.5,1.9-15
		c-0.2-3.5-1-5.2-2.3-5.1C351.4,145.7,350.3,147.7,349.2,151.6z"/>
	<path class="st0" d="M362.2,200.8c-0.8-1.8-1.4-4.7-1.7-8.8c-0.4-6,0.1-11.7,1.4-17.2c0.3-1.4,0.9-2.4,1.8-3.1
		c0.9-0.7,2.2-1.1,3.9-1.2c0.9-0.1,1.6,0,2,0.2c0.4,0.2,0.6,0.6,0.6,1.3c0,0.7-0.2,2.4-0.7,5c-0.3,1.9-0.6,3.5-0.8,4.9
		c-0.2,1.4-0.3,3.1-0.3,5.2c1.2-4.1,2.7-7.4,4.5-10c1.7-2.6,3.4-4.5,5.2-5.7c1.7-1.2,3.4-1.8,4.9-1.9c3-0.2,4.6,1.2,4.8,4.2
		c0.1,1.8-0.2,5.1-0.9,9.8c-0.6,4.1-0.9,6.7-0.8,8c0.1,1.8,0.9,2.7,2.2,2.6c0.9-0.1,2-0.7,3.2-1.9c1.2-1.2,2.8-3.2,4.7-5.8
		c0.5-0.7,1.1-1,1.8-1.1c0.6,0,1.1,0.2,1.5,0.7c0.4,0.5,0.6,1.3,0.7,2.2c0.1,1.8-0.2,3.3-1,4.4c-1.8,2.6-3.8,4.7-6,6.4
		c-2.2,1.7-4.7,2.7-7.6,2.9c-2.3,0.2-4.2-0.4-5.4-1.7c-1.3-1.3-2-3.2-2.2-5.8c-0.1-1.3,0.1-3.6,0.5-7c0.4-2.9,0.6-5,0.5-6.1
		c-0.1-0.7-0.3-1.1-0.8-1.1c-0.6,0-1.4,0.9-2.4,2.5c-1,1.6-1.9,3.7-2.9,6.3c-1,2.6-1.7,5.3-2.2,8.2c-0.4,2.2-0.8,3.7-1.5,4.5
		c-0.6,0.8-1.6,1.3-3.1,1.4C364.3,203.4,363.1,202.6,362.2,200.8z"/>
	<path class="st0" d="M397.2,198c-1.5-2-2.4-4.8-2.6-8.3c-0.1-2.1-0.1-4.7,0.3-8c0.3-3.3,0.8-6.3,1.4-9.2c0.3-1.5,0.8-2.5,1.4-3.1
		c0.7-0.6,1.7-0.9,3.3-1.1c2.3-0.2,3.6,0.5,3.7,2.1c0.1,1.2-0.2,3.8-0.8,8.1c-0.8,5.1-1.1,8.6-1,10.4c0.1,1.4,0.3,2.4,0.8,3.1
		c0.4,0.7,1.1,1,1.9,1c0.8-0.1,1.8-0.7,3-1.9c1.2-1.2,2.7-3.2,4.6-5.8c0.5-0.7,1.1-1,1.8-1.1c0.6,0,1.1,0.2,1.5,0.7s0.6,1.3,0.7,2.2
		c0.1,1.8-0.2,3.3-1,4.4c-4.2,5.9-8.2,8.9-12.2,9.2C400.9,200.9,398.7,200,397.2,198z M397.5,162.6c-1-0.8-1.6-2.1-1.7-3.7
		c-0.1-1.6,0.4-3,1.6-4.2c1.2-1.2,2.7-1.8,4.6-1.9c1.7-0.1,3.1,0.2,4.2,1c1.1,0.8,1.7,1.9,1.8,3.4c0.1,1.8-0.4,3.3-1.5,4.5
		c-1.1,1.2-2.7,1.8-4.6,1.9C400,163.8,398.5,163.4,397.5,162.6z"/>
	<path class="st0" d="M413.7,196.9c-1.8-2-2.8-4.6-3-8c-0.2-3.7,0.4-7.2,1.8-10.6c1.5-3.4,3.6-6.2,6.3-8.4c2.7-2.2,5.6-3.4,8.8-3.6
		c1-0.1,1.7,0.1,2.1,0.4c0.4,0.4,0.7,1.1,1,2c0.9-0.2,1.8-0.4,2.9-0.5c1.1-0.1,2,0.1,2.6,0.7c0.6,0.5,1,1.3,1.1,2.3
		c0.1,1.1,0,2.9-0.3,5.6c-0.3,2.8-0.5,5.5-0.6,8.1c-0.1,2.6,0,5.4,0.2,8.6c0.1,1.7-0.2,3-0.8,3.8c-0.7,0.8-1.8,1.3-3.4,1.4
		c-1.6,0.1-2.7-0.2-3.6-0.9c-0.8-0.7-1.3-1.9-1.4-3.6l0-1.1c-1.2,4.1-3.5,6.2-7,6.4C417.7,199.8,415.5,198.9,413.7,196.9z
		 M425.9,189.5c0.9-1.9,1.7-5.1,2.2-9.8l0.8-7.1c-1.9,0.2-3.6,1-5.1,2.5c-1.5,1.5-2.7,3.5-3.5,5.8s-1.1,4.8-1,7.4
		c0.1,1.4,0.4,2.4,1,3.1c0.6,0.7,1.3,1,2.2,0.9C423.8,192.4,424.9,191.4,425.9,189.5z"/>
</g>
<g>
	<path class="st0" d="M145.2,286.9c-4-2.1-6.2-5.7-6.7-10.6c-0.2-2.6,0.1-4.7,0.9-6.1c0.8-1.5,2.1-2.3,3.9-2.4
		c1.3-0.1,2.4,0.1,3.2,0.8c0.9,0.6,1.3,1.4,1.4,2.5c0.1,1,0.1,1.8,0,2.5c0,0.2,0,0.5,0,1c0,0.5,0,1,0,1.5c0.2,2.2,1.4,3.7,3.7,4.5
		c2.3,0.9,5.4,1.2,9.3,0.8c4.1-0.3,7.2-1.3,9.4-3c2.2-1.6,3.2-3.8,2.9-6.4c-0.1-1.6-0.8-3-1.9-4.1c-1.2-1.1-2.5-2-4.2-2.6
		c-1.6-0.7-4-1.5-6.9-2.4c-3.8-1.1-6.9-2.3-9.4-3.4c-2.4-1.1-4.6-2.7-6.4-4.8c-1.8-2.1-2.9-4.8-3.2-8.1c-0.3-3.4,0.4-6.6,2-9.4
		c1.6-2.8,4.1-5.1,7.5-6.9c3.4-1.8,7.4-2.8,12.1-3.2c3.5-0.3,6.7,0,9.8,0.8c3,0.8,5.5,2.2,7.4,4.1c1.9,2,3,4.5,3.3,7.5
		c0.2,3,0,5.3-0.8,6.9c-0.8,1.6-2.1,2.5-3.8,2.6c-1.2,0.1-2.3-0.2-3.2-0.9c-0.9-0.7-1.4-1.6-1.5-2.6c-0.1-0.9-0.1-1.8,0-2.5
		c0-1.4,0-2.4,0-2.7c-0.2-2-1.3-3.5-3.3-4.4c-2.1-0.9-4.5-1.2-7.5-1c-4.1,0.3-7.2,1.3-9.3,3c-2.1,1.7-3,3.9-2.8,6.6
		c0.1,1.8,0.8,3.3,2.1,4.5c1.2,1.2,2.7,2.2,4.5,2.9c1.7,0.7,4.2,1.6,7.3,2.5c3.8,1.2,6.8,2.3,9.1,3.3c2.3,1,4.3,2.5,6,4.4
		c1.7,1.9,2.7,4.4,3,7.4c0.5,5.7-1.3,10.2-5.4,13.6c-4,3.4-9.7,5.4-16.8,6C154.4,289.9,149.2,289.1,145.2,286.9z"/>
	<path class="st0" d="M229.1,267.9c0.4,0.5,0.7,1.3,0.7,2.3c0.2,1.9-0.2,3.4-1,4.6c-1.9,2.7-3.9,5-6.1,6.8c-2.2,1.8-4.9,2.9-7.9,3.1
		c-2.5,0.2-4.7-0.5-6.4-2.2c-2.6,2-5.4,3.1-8.3,3.4c0.1,9.3-0.7,17.1-2.4,23.5c-1.7,6.4-4.7,9.8-8.9,10.1c-2.6,0.2-4.6-0.6-6-2.3
		c-1.4-1.8-2.2-4.3-2.5-7.6c-0.4-4.7,0.3-10.3,1.9-16.7c1.6-6.4,4.4-13.6,8.3-21.5c-0.6-7-1-11.9-1.3-14.6c-0.2-1.4,0.3-2.5,1.4-3.4
		c1.1-0.9,2.5-1.4,4.2-1.6c1-0.1,1.8,0.1,2.2,0.4c0.5,0.4,0.8,1.2,1,2.3c0.1,1.2,0.2,2.1,0.3,2.7c1.4-2,2.8-3.5,4.2-4.5
		c1.4-1,3-1.5,4.6-1.6c2.7-0.2,5,0.7,6.8,2.7c1.9,2,3,4.8,3.2,8.3c0.2,2.5,0,5-0.6,7.5c-0.6,2.5-1.6,4.7-2.8,6.8
		c1,0.2,1.9,0.3,2.6,0.2c1.6-0.1,3-0.8,4.4-2.1c1.3-1.3,3-3.3,5.1-6.2c0.5-0.7,1.1-1.1,1.9-1.2C228.2,267.1,228.7,267.4,229.1,267.9
		z M191.4,303.7c0.4-5.7,0.4-12.8-0.1-21.2c-1.7,5-2.9,9.7-3.8,14.1c-0.8,4.5-1.1,8.2-0.9,11.1c0.1,1.5,0.4,2.7,0.8,3.5
		c0.4,0.8,0.9,1.2,1.4,1.1C190.1,312.3,190.9,309.4,191.4,303.7z M204.5,275.8c1.3-1.6,2.3-3.6,3-5.9c0.7-2.3,0.9-4.7,0.7-7.1
		c-0.1-1.4-0.5-2.5-1.1-3.2c-0.6-0.7-1.4-1-2.4-0.9c-1.7,0.1-3.7,2.1-5.8,6c0.1,2.1,0.4,5.2,0.7,9.3c0.2,2.2,0.3,3.9,0.3,5.1
		C201.6,278.5,203.1,277.4,204.5,275.8z"/>
	<path class="st0" d="M255,258.4c0.8,0.7,1.2,1.6,1.3,2.7c0.1,0.6,0,1.3-0.3,2c-0.6,1.8-1.6,3.4-2.9,4.7c-1.3,1.3-2.8,2-4.5,2.2
		c-1.3,0.1-2.5-0.3-3.5-1.2c-1-0.9-1.6-2.1-1.7-3.8c-0.1-0.9-0.1-1.9-0.1-3c0-0.8,0-1.3,0-1.6c0-0.4-0.1-0.7-0.3-0.8
		c-0.2-0.2-0.4-0.3-0.6-0.2c-0.7,0.1-1.5,0.9-2.5,2.6c-1,1.7-2,3.9-2.9,6.6c-0.9,2.7-1.6,5.6-2.1,8.6c-0.3,2.3-0.8,3.9-1.4,4.7
		c-0.6,0.8-1.7,1.3-3.2,1.4c-1.8,0.1-3.2-0.7-4.1-2.6c-0.9-1.9-1.5-4.9-1.9-9.1c-0.5-6.2-0.1-12.2,1.2-18c0.3-1.4,0.9-2.5,1.9-3.2
		c0.9-0.7,2.3-1.2,4.1-1.3c1-0.1,1.6,0,2,0.2c0.4,0.2,0.6,0.6,0.7,1.3c0.1,0.8-0.2,2.5-0.7,5.3c-0.3,2-0.6,3.7-0.7,5.1
		c-0.2,1.5-0.3,3.3-0.3,5.4c1.2-4.3,2.7-7.7,4.5-10.5c1.8-2.7,3.5-4.7,5.3-6c1.8-1.3,3.4-1.9,5-2.1c1.4-0.1,2.5,0.2,3.3,0.9
		c0.8,0.7,1.3,1.9,1.4,3.4c0.1,0.9,0,2.7-0.4,5.2l0.6-0.1C253.3,257.4,254.2,257.7,255,258.4z"/>
	<path class="st0" d="M295.3,262.5c0.4,0.5,0.6,1.3,0.7,2.3c0.1,1.8-0.2,3.3-1,4.6c-2,3.1-4.6,5.6-7.8,7.6c-3.2,1.9-6.9,3.1-11,3.4
		c-3.3,0.3-6.1,0-8.6-0.8c-2.5-0.8-4.4-2-5.8-3.6c-1.4-1.6-2.2-3.5-2.4-5.6c-0.3-3.2,0.8-6.1,3.1-8.7c2.3-2.6,5.8-5.3,10.4-7.9
		l-11.8,1.2c-1.1,0.1-1.9-0.2-2.5-0.9c-0.6-0.7-1-1.7-1.1-2.8c-0.1-1.2,0.1-2.2,0.6-3.1c0.5-0.9,1.2-1.4,2.2-1.5
		c2.2-0.2,5.2-0.3,8.9-0.2c0.8,0,2.2,0,4.2-0.1c2,0,3.8-0.1,5.2-0.2c0.5,0,1.4-0.3,2.7-0.8c0.2-0.1,0.7-0.2,1.4-0.5
		c0.7-0.2,1.3-0.4,1.7-0.4c0.8-0.1,1.4,0.2,2,0.9c0.6,0.6,0.9,1.6,1,3c0.1,1.5-0.1,2.8-0.8,3.7c-0.6,0.9-1.7,1.8-3.2,2.6
		c-4.2,2.2-7.7,4.5-10.4,6.9c-2.7,2.4-4,4.6-3.8,6.7c0.1,1.3,0.8,2.4,2.1,3.2c1.3,0.8,3.2,1,5.6,0.8c2.7-0.2,5.3-1.1,8-2.7
		c2.6-1.6,5-3.8,6.9-6.7c0.5-0.7,1.1-1.1,1.9-1.2C294.4,261.7,294.9,262,295.3,262.5z"/>
	<path class="st0" d="M323.5,260.3c0.4,0.5,0.7,1.3,0.7,2.3c0.2,1.9-0.2,3.4-1,4.6c-2.3,3.4-6,6.3-10.9,8.6c-2.1,1-3.6,2.2-4.5,3.7
		c-0.9,1.5-1.2,3-1.1,4.5c0.1,1.5,0.6,2.6,1.6,3.2c0.9,0.7,2,1,3.3,0.9c1.2-0.1,2.4-0.4,3.3-0.8c0.8-0.4,1.4-0.6,1.9-0.6
		c1.2-0.1,1.9,0.7,2.1,2.5c0.2,1.9-0.9,3.3-3.1,4.3c-0.6,0.2-1.3,0.5-2.2,0.7c-0.9,0.2-1.8,0.4-2.5,0.4c-3.3,0.3-6-0.4-8.1-1.9
		c-2.1-1.5-3.2-3.8-3.5-6.7c-0.1-1.7,0-3.3,0.5-4.7c0.5-1.4,1.3-2.7,2.4-4c-3.9-0.3-7.1-1.6-9.4-4.1c-2.3-2.5-3.7-5.8-4-9.9
		c-0.3-3.3,0.2-6.4,1.3-9.4c1.2-3,2.9-5.4,5.2-7.3c2.3-1.9,5.1-2.9,8.2-3.2c2.8-0.2,5.1,0.4,6.9,1.9c1.8,1.5,2.8,3.7,3.1,6.5
		c0.3,3.3-0.7,6.2-2.9,8.8c-2.2,2.6-6,4.8-11.6,6.6c1.4,2.1,3.7,3,7.1,2.8c2.2-0.2,4.6-1.1,7.2-2.9c2.6-1.7,4.9-3.9,6.7-6.5
		c0.5-0.7,1.1-1.1,1.9-1.2C322.6,259.5,323.1,259.7,323.5,260.3z M298.8,254c-1.1,2.2-1.5,4.7-1.2,7.6l0,0.1
		c2.8-0.9,4.9-2.1,6.4-3.6c1.5-1.5,2.2-3.1,2.1-4.9c-0.1-0.9-0.4-1.6-0.9-2.1c-0.5-0.5-1.3-0.7-2.1-0.7
		C301.2,250.7,299.8,251.9,298.8,254z"/>
	<path class="st0" d="M351.8,258c0.4,0.5,0.7,1.3,0.7,2.3c0.2,1.9-0.2,3.4-1,4.6c-1.9,2.7-3.9,5-6.2,6.8c-2.3,1.8-5,2.9-8.2,3.1
		c-9.8,0.8-15.2-5.7-16.3-19.4c-0.2-2.1-0.3-4.2-0.3-6.4l-2.8,0.2c-1.4,0.1-2.4-0.1-3-0.6c-0.5-0.5-0.9-1.3-1-2.5
		c-0.2-2.7,0.8-4.1,2.9-4.3l4.1-0.3c0.4-5.3,1.2-10.3,2.6-14.8c1.3-4.5,3.1-8.1,5.2-10.9c2.2-2.8,4.6-4.3,7.3-4.5
		c2-0.2,3.7,0.6,5,2.3c1.3,1.7,2,3.9,2.3,6.5c0.6,7.4-2,14.2-7.8,20.2l8-0.7c0.8-0.1,1.3,0.1,1.7,0.4c0.4,0.3,0.6,0.9,0.7,1.8
		c0.3,3.3-2.3,5.2-7.7,5.6l-8.8,0.7c0.1,2.4,0.2,4.3,0.3,5.6c0.4,5,1.3,8.4,2.6,10.4c1.3,1.9,3.3,2.8,5.8,2.6
		c2.1-0.2,3.8-0.9,5.3-2.3c1.5-1.4,3.2-3.4,5.1-6.1c0.5-0.7,1.1-1.1,1.9-1.2C350.8,257.2,351.4,257.4,351.8,258z M332.2,221.3
		c-0.7,1.9-1.4,4.4-1.9,7.7c-0.5,3.3-0.9,6.8-1.1,10.8c2.6-2.7,4.5-5.6,5.7-8.7c1.2-3.2,1.6-6,1.4-8.5c-0.2-2.8-0.9-4.2-1.9-4.1
		C333.7,218.5,332.9,219.4,332.2,221.3z"/>
	<path class="st0" d="M384.1,249.3c0.4,0.6,0.6,1.4,0.7,2.3c0.2,2.3-0.4,3.7-1.8,4.3c-2.8,1.2-5.9,2.1-9.3,2.5
		c-0.6,4.1-2.1,7.5-4.6,10.1c-2.5,2.6-5.4,4.1-8.8,4.4c-2.9,0.2-5.4-0.3-7.5-1.5c-2.2-1.2-3.8-2.9-5.1-5.2c-1.2-2.2-2-4.7-2.2-7.3
		c-0.3-3.6,0.1-6.9,1.3-9.9c1.2-3,2.9-5.3,5.2-7.2c2.3-1.8,5-2.8,7.9-3.1c3.6-0.3,6.7,0.7,9.1,3.1c2.4,2.3,4,5.3,4.7,9
		c2.2-0.3,4.9-1,7.9-2.1c0.4-0.1,0.7-0.2,1-0.2C383.2,248.5,383.7,248.7,384.1,249.3z M364,263c1-1.3,1.6-3.2,1.8-5.6
		c-1.6-0.9-2.8-2.1-3.7-3.7c-0.9-1.6-1.5-3.3-1.6-5.1c-0.1-0.8-0.1-1.5,0-2.3l-0.4,0c-1.9,0.2-3.4,1.2-4.6,3.2
		c-1.1,1.9-1.5,4.6-1.3,8c0.2,2.6,0.9,4.6,2,5.9c1.1,1.3,2.4,1.9,3.8,1.8C361.7,265.1,363,264.4,364,263z M358.3,233.4
		c-0.5-0.5-0.8-1.1-0.9-1.8c0-0.3,0.1-0.8,0.2-1.4l5.5-15.5c0.4-1,0.9-1.7,1.5-2.3c0.7-0.5,1.4-0.8,2.3-0.9c1.2-0.1,2.3,0.2,3.3,1
		c1,0.8,1.6,1.8,1.7,3.1c0.1,1.3-0.3,2.7-1.3,4.2l-8.3,12.7c-0.6,0.9-1.3,1.3-2.2,1.4C359.5,234.1,358.8,233.9,358.3,233.4z"/>
	<path class="st0" d="M425.3,236c0,0.6-0.1,1.4-0.4,2.4c-3.1,9.4-6.2,17-9.2,22.8c-1.5,2.9-2.9,4.9-4.2,6c-1.3,1.1-2.8,1.8-4.6,1.9
		c-1.9,0.2-3.4-0.5-4.5-1.9c-1.1-1.4-1.8-3.8-2.4-7.2c-0.2-1.2-0.4-3.1-0.7-5.6c-1.2,4.2-2.2,7.5-3.3,9.8c-1,2.3-2.1,3.9-3.2,4.8
		c-1.1,0.9-2.5,1.4-4.1,1.6c-2,0.2-3.6-0.5-4.8-1.9c-1.3-1.4-2.2-3.8-2.7-7.1c-1.1-6.7-1.9-12.5-2.3-17.5l-0.2-2.5
		c-0.1-1.6,0.2-2.8,0.9-3.4c0.7-0.7,1.9-1.1,3.7-1.2c1.2-0.1,2.2,0.1,2.8,0.6c0.6,0.5,1,1.4,1.1,2.7c0.4,5.5,1.4,12.6,2.8,21.4
		c1.3-3.5,2.5-6.8,3.6-10c1.1-3.2,2.3-7.2,3.7-12.2c0.4-1.5,1-2.5,1.7-3.1c0.7-0.6,1.6-0.9,2.6-1c1.3-0.1,2.4,0.1,3.1,0.6
		c0.7,0.5,1.1,1.4,1.2,2.7l0.9,11.1c0.4,4.8,0.7,8.2,0.9,10.3c1.9-4,3.4-7.5,4.6-10.4c1.2-2.9,2.5-6.9,3.8-11.8
		c0.4-1.5,1-2.5,1.8-3.1c0.8-0.6,1.9-0.9,3.2-1C423.8,233.6,425.2,234.3,425.3,236z"/>
</g>
<g transform="translate(0.000000,1248.000000) scale(0.100000,-0.100000)">
	<path class="st0" d="M1922.1,11641l-4.6-9.2l2.9-1.7c1.6-0.9,22.9-13.1,47.4-27.1l44.4-25.4l-0.1-7.2c-0.2-8.9-1.4-17.6-3.6-26.7
		c-7-28.7-24.2-51.7-50.4-67.6l-4.4-2.7l-45.7,26.1c-25.1,14.4-46.5,26.6-47.5,27.2l-1.8,1.1l-2.3-4.5l-2.3-4.6l2.5-7.1
		c9.7-26.5,24.5-50.5,41.1-66.2c26.5-25,61.4-38.1,106.1-39.5c12-0.4,14.6-0.9,21.3-4.5c12.9-6.8,29.5-19.8,54.4-42.4
		c13.3-12.1,20-18.5,40.8-39.2l18.5-18.3l36.3,36.3l36.3,36.2l-19.5,19.6c-52.3,52.6-82.9,87.9-94.2,108.6
		c-3.4,6.4-3.9,8.9-4.3,22.3c-0.8,27.8-4.5,46.9-12.3,63.5c-7.6,16.2-20.6,30.1-36.6,39.2c-24.4,13.8-57.6,20.9-104.8,22.3
		l-13.3,0.4L1922.1,11641z"/>
	<path class="st0" d="M2446.8,11595.9c-24.5-17.2-45-31.8-45.4-32.6c-0.4-0.7-2.6-9-5-18.5l-4.2-17.2l-131.1-131l-131.1-131
		l-18.1,11.3l-18.1,11.3l-9-9c-8.8-8.8-9-9.2-9-11.5c0-3.4-1-9.7-2.3-14.6c-5.3-20.5-22.7-40-46.7-52.3c-11.8-6-24.6-10.2-35.7-11.6
		l-5.8-0.7l-74.7-74.6l-74.7-74.6l0.4-4.9c1.5-20.5,13.2-42.6,32-60.8c16.2-15.7,34-25.2,52.8-28.3c2.8-0.5,6.2-0.8,7.6-0.8h2.5
		l74.6,74.6c69,69.1,74.5,74.7,74.5,76.5c0,6.1,3.1,18.8,6.9,28.4c11.8,29.7,33.3,51.5,57.4,57.9c2.4,0.7,7.3,1.5,11,1.9l6.6,0.6
		l8.9,8.8l8.9,8.9l-11.4,18.1l-11.4,18.2l130.6,130.5c71.8,71.7,131,130.8,131.4,131.2c0.5,0.4,8.8,2.7,18.4,5.1
		c9.7,2.4,17.9,4.7,18.3,5.2c0.4,0.4,14.8,20.7,31.9,45.2l31.1,44.5l-11.8,11.8c-6.5,6.4-12.7,12.5-13.7,13.5l-1.9,1.8
		L2446.8,11595.9z"/>
	<path class="st0" d="M2229.3,11283.5l-36.1-36.2l24.6-24.6c34.7-34.9,51.8-52.8,69.1-73c18.8-21.8,30.5-38.9,32.4-47.5
		c0.3-1.4,0.7-7.9,0.9-14.4c1.1-41.1,9.4-67,27.6-86c8.1-8.5,15.9-14.2,27-19.7c24-12,54.9-18,99-19.3l13.3-0.4l4.6,9.1l4.6,9.2
		l-2.9,1.7c-1.6,0.9-22.9,13.1-47.4,27.1l-44.4,25.4l0.1,7c0.7,40,20,74,53.4,94.2l4.9,3l45.7-26.1c25.1-14.4,46.5-26.6,47.5-27.2
		l1.8-1.1l2.3,4.5l2.3,4.5l-1.6,4.7c-4,11.6-11.2,27.2-17.7,38c-23.3,38.7-58.4,61.2-105.8,68.1c-9.1,1.3-21.8,2.3-29.8,2.3
		c-8.6,0-14.6,2.4-26.7,10.3c-19.2,12.8-43.8,34.9-89,79.9c-12.6,12.5-23.1,22.8-23.2,22.7
		C2265.5,11319.8,2249.2,11303.4,2229.3,11283.5z"/>
</g>
<g>
	<path class="st0" d="M208.3,176.8c-0.3,0.3-0.5,0.5-0.8,0.7c0.4-0.1,0.8-0.2,1.3-0.4c0.2-0.1,0.7-0.2,1.3-0.4
		c0.7-0.2,1.2-0.4,1.7-0.4c0.7,0,1.4,0.2,1.9,0.8c0.5,0.6,0.8,1.6,0.9,2.9l4.5-0.4c0.2-0.6,0.4-1.1,0.6-1.5l-9.5-4.7
		C209.9,174.7,209.2,175.8,208.3,176.8z"/>
	<path class="st0" d="M343,103.9L156.8,10.8c-6.2-3.1-13.9-0.6-17,5.7L84.4,127.2c-3.1,6.2-0.6,13.9,5.7,17l73.8,36.9
		c1.7-1,3.6-1.5,5.7-1.7c2.7-0.2,5.1,0.3,7.1,1.6c1,0.6,1.9,1.3,2.7,2.2l6.5-0.6c0,0,0-0.1,0-0.1c-0.1-1.1,0.1-2.1,0.6-3
		c0.5-0.9,1.2-1.4,2.1-1.4c1.7-0.1,3.8-0.2,6.4-0.1c-1.4-1.2-2.1-2.9-2.3-5.1c-0.2-2.3,0.6-4.3,2.3-6c0.1-0.1,0.1-0.1,0.2-0.2
		c0-0.2,0.1-0.4,0.2-0.7l-84-42c-6.2-3.1-8.8-10.8-5.7-17l38-76.1c3.1-6.2,10.8-8.8,17-5.7L329,109.4c6.2,3.1,8.8,10.8,5.7,17
		l-22.4,44.9l3-0.3c2-1.1,4.1-1.8,6.3-1.9c1-0.1,1.7,0.1,2.1,0.4c0.2,0.2,0.3,0.4,0.5,0.7l24.6-49.3
		C351.8,114.7,349.3,107,343,103.9z"/>
</g>
</svg>
